<?xml version="1.0" encoding="UTF-8"?>
<svg version="1.1" xmlns="http://www.w3.org/2000/svg" width="1254" height="1254">
<path d="M0 0 C2.2826134 -0.00135891 4.56522658 -0.00314157 6.84783936 -0.00531006 C12.9888406 -0.00982823 19.12982484 -0.00811761 25.27082634 -0.00493097 C31.74390581 -0.00237564 38.21698394 -0.0047539 44.69006348 -0.00631714 C56.25763197 -0.00824645 67.82519281 -0.0051619 79.3927601 -0.0000578 C89.8171824 0.00440017 100.24159353 0.00363943 110.66601562 -0.00097656 C122.84298502 -0.00636626 135.01994649 -0.00829936 147.19691706 -0.0053643 C153.61607791 -0.00382003 160.03523114 -0.00355592 166.45439148 -0.00690079 C172.50222775 -0.00983253 178.55004341 -0.00770864 184.5978775 -0.00200653 C186.79211137 -0.00070643 188.98634703 -0.00102485 191.18058014 -0.0032692 C207.65828439 -0.01854264 224.02371283 0.54060693 240.50976562 1.12939453 C240.50976562 42.37939453 240.50976562 83.62939453 240.50976562 126.12939453 C221.27953125 126.17837891 202.04929687 126.22736328 182.23632812 126.27783203 C170.06835499 126.31320892 157.90038621 126.34907052 145.73242188 126.38720703 C139.34065801 126.40721435 132.94889379 126.42709868 126.55712891 126.44677734 C125.75605182 126.44924878 124.95497473 126.45172022 124.12962258 126.45426655 C111.20557448 126.49395986 98.28151766 126.52671356 85.35744424 126.55689435 C72.08876422 126.5880347 58.82012108 126.62665513 45.55148256 126.67218459 C37.36744164 126.70003226 29.18342763 126.72208139 20.99935214 126.73665704 C15.38329603 126.74721865 9.7672921 126.76506167 4.15127535 126.78856157 C0.91364128 126.80189639 -2.32390631 126.81100548 -5.56156921 126.81360817 C-9.07893816 126.81694176 -12.59605539 126.83244938 -16.1133728 126.85092163 C-17.6338414 126.84801953 -17.6338414 126.84801953 -19.18502653 126.8450588 C-29.07177476 126.92247097 -37.68539258 128.56839586 -46.49023438 133.12939453 C-47.29332031 133.53931641 -48.09640625 133.94923828 -48.92382812 134.37158203 C-61.79206732 141.47822271 -70.79384919 152.63763456 -75.65039062 166.42236328 C-79.79998667 182.26803004 -77.69409665 198.4198713 -69.91601562 212.84423828 C-67.01917591 217.48711837 -63.75167775 221.97637652 -59.77929688 225.75830078 C-58.49023438 227.12939453 -58.49023438 227.12939453 -58.49023438 229.12939453 C-57.96558594 229.36271484 -57.4409375 229.59603516 -56.90039062 229.83642578 C-53.70430506 231.5510195 -50.84785121 233.67961245 -47.92773438 235.81689453 C-41.92075247 240.16052478 -35.78839673 244.21732012 -29.49023438 248.12939453 C-18.87281361 254.7994974 -18.87281361 254.7994974 -14.86523438 257.75439453 C-12.41574825 259.5479756 -9.92054198 261.01650126 -7.24023438 262.44189453 C-2.58948402 264.95282596 1.53006076 268.01478676 5.76757812 271.16064453 C9.00972209 273.48833764 12.36652356 275.50637285 15.80664062 277.52392578 C30.39653947 286.18931368 45.15436625 295.58193401 57.51757812 307.25830078 C59.62062561 309.29244298 59.62062561 309.29244298 62.57226562 311.50439453 C70.99009672 319.02671168 77.29478704 328.77148001 83.50976562 338.12939453 C84.0434375 338.90283203 84.57710937 339.67626953 85.12695312 340.47314453 C96.45103435 357.85713949 103.5926069 381.78944744 103.65020752 402.51339722 C103.65591766 403.7521611 103.66162781 404.99092499 103.66751099 406.26722717 C103.66875607 407.62216176 103.66988123 408.97709647 103.67089844 410.33203125 C103.67553313 411.77344386 103.68055865 413.21485526 103.6859436 414.65626526 C103.69901312 418.55975983 103.70550271 422.46323723 103.70995426 426.36675024 C103.71289582 428.81340225 103.71700277 431.26004968 103.72145844 433.70669937 C103.73512346 441.38417566 103.74479311 449.06164135 103.74866033 456.73912895 C103.75312878 465.55871543 103.77062429 474.378146 103.79966092 483.19768512 C103.82139828 490.04135058 103.8313711 496.88497259 103.83270144 503.72867215 C103.83374155 507.80309191 103.83947676 511.87736493 103.85752106 515.95174789 C103.99338887 548.46444678 103.99338887 548.46444678 100.50976562 562.12939453 C100.27277954 563.08949936 100.03579346 564.04960419 99.79162598 565.0388031 C99.20999349 567.28873386 98.54689935 569.48425997 97.82226562 571.69189453 C97.56952881 572.47435547 97.31679199 573.25681641 97.05639648 574.06298828 C85.71012593 607.78463638 61.57212188 632.05214794 30.28027344 647.89282227 C21.97633789 651.97045618 13.60279197 655.34384869 4.75976562 658.06689453 C3.88723145 658.33703369 3.01469727 658.60717285 2.11572266 658.88549805 C-12.86871234 663.2418233 -27.34138854 664.57001466 -42.86157227 664.4699707 C-44.73597703 664.46912205 -46.61038279 664.4696042 -48.48478699 664.47129822 C-53.51676764 664.47215031 -58.54852874 664.45465356 -63.58045888 664.43357635 C-68.86014105 664.41467684 -74.13982962 664.41304874 -79.41954041 664.40950012 C-89.39215859 664.40021832 -99.36467676 664.37565748 -109.33725113 664.34545165 C-120.70138115 664.31178652 -132.06551624 664.29539133 -143.4296838 664.28036535 C-166.78325586 664.24910401 -190.13673948 664.19641962 -213.49023438 664.12939453 C-214.16147669 660.4549086 -214.61547226 656.96202671 -214.61721802 653.2275238 C-214.62003784 652.29253052 -214.62285767 651.35753723 -214.62576294 650.39421082 C-214.62373871 649.38570572 -214.62171448 648.37720062 -214.61962891 647.33813477 C-214.62138123 646.26264374 -214.62313354 645.18715271 -214.62493896 644.07907104 C-214.62933218 640.53202694 -214.62642858 636.98503288 -214.62304688 633.43798828 C-214.62372059 630.96989431 -214.62469118 628.50180041 -214.62594604 626.03370667 C-214.62741955 620.86483121 -214.62527941 615.69597305 -214.62060547 610.52709961 C-214.61490542 603.90038141 -214.61819115 597.27370368 -214.62417793 590.64698696 C-214.62779035 585.55210566 -214.62664187 580.45723396 -214.62405014 575.36235237 C-214.62338291 572.91870176 -214.62420217 570.47505028 -214.62652969 568.03140068 C-214.62906766 564.61799684 -214.6251995 561.20465871 -214.61962891 557.79125977 C-214.62165314 556.78073044 -214.62367737 555.77020111 -214.62576294 554.72904968 C-214.62294312 553.79687622 -214.62012329 552.86470276 -214.61721802 551.90428162 C-214.61684099 551.09813132 -214.61646397 550.29198103 -214.61607552 549.46140194 C-214.48004912 546.94064794 -214.04026355 544.59031154 -213.49023438 542.12939453 C-212.65977097 542.12884976 -211.82930756 542.128305 -210.97367859 542.12774372 C-190.70580366 542.11273392 -170.43814764 542.07011799 -150.1703949 541.99730396 C-140.36877996 541.96274664 -130.56730432 541.93731064 -120.765625 541.93383789 C-112.21598679 541.93078506 -103.66659723 541.91011849 -95.11705494 541.86886996 C-90.59595137 541.84765724 -86.07520025 541.83487841 -81.55404663 541.84324074 C-77.28568264 541.85085595 -73.01802836 541.83465984 -68.74979401 541.80133438 C-67.19558045 541.79319 -65.64129508 541.79324415 -64.08708954 541.80279732 C-45.49913242 541.9056036 -29.66901251 536.44254396 -15.49023438 524.12939453 C-14.83023438 524.12939453 -14.17023438 524.12939453 -13.49023438 524.12939453 C-13.22597656 523.54158203 -12.96171875 522.95376953 -12.68945312 522.34814453 C-11.4482153 520.05165241 -10.103746 518.50871101 -8.30273438 516.62939453 C5.50312402 501.04398682 9.42670101 481.93122325 8.68017578 461.68310547 C7.54469456 444.66715473 -0.96030471 426.98208806 -13.37304688 415.36767578 C-14.53999912 414.36490513 -15.7228985 413.38027539 -16.92382812 412.41845703 C-18.49023438 411.12939453 -18.49023438 411.12939453 -20.74023438 408.69189453 C-23.97020716 405.68214717 -27.40094508 403.52443803 -31.14648438 401.20361328 C-35.04164415 398.7873401 -38.89305313 396.30859223 -42.74023438 393.81689453 C-43.46452637 393.34848145 -44.18881836 392.88006836 -44.93505859 392.39746094 C-50.40180899 388.85430895 -55.82555857 385.24994384 -61.23828125 381.625 C-66.60132845 378.03957589 -72.03078062 374.56621933 -77.49023438 371.12939453 C-84.37537793 366.79507223 -91.17722837 362.35396964 -97.93579102 357.82592773 C-101.65489493 355.33879179 -105.3953986 352.89496173 -109.17773438 350.50439453 C-119.49907283 343.95841291 -129.380256 337.12914988 -138.87597656 329.43652344 C-139.98974374 328.53466175 -141.11067873 327.64160527 -142.23730469 326.75585938 C-143.6921453 325.59207211 -145.09626284 324.36543878 -146.49023438 323.12939453 C-146.49023438 322.46939453 -146.49023438 321.80939453 -146.49023438 321.12939453 C-147.35648438 320.75814453 -147.35648438 320.75814453 -148.24023438 320.37939453 C-150.81963417 318.94639465 -152.55145029 317.34514777 -154.49023438 315.12939453 C-154.49023438 314.46939453 -154.49023438 313.80939453 -154.49023438 313.12939453 C-155.04710937 312.91283203 -155.60398437 312.69626953 -156.17773438 312.47314453 C-159.23082043 310.69905399 -161.25872624 308.30841817 -163.49023438 305.62939453 C-163.96227295 305.06696045 -164.43431152 304.50452637 -164.9206543 303.92504883 C-170.57540161 297.02482787 -175.43810972 289.5883762 -180.24072266 282.08105469 C-181.24701325 280.5092909 -182.27026724 278.94839446 -183.29882812 277.39111328 C-206.46311706 241.04389569 -213.59047029 191.03699262 -204.68164062 149.20751953 C-204.29070719 147.51336809 -203.89379808 145.8205818 -203.49023438 144.12939453 C-203.21735596 142.94700195 -203.21735596 142.94700195 -202.93896484 141.74072266 C-198.59970794 123.35995613 -191.29235255 106.23353058 -181.49023438 90.12939453 C-180.61238281 88.65599609 -180.61238281 88.65599609 -179.71679688 87.15283203 C-173.2551241 76.62606935 -165.46183638 65.63922291 -156.49023438 57.12939453 C-155.83023438 57.12939453 -155.17023438 57.12939453 -154.49023438 57.12939453 C-154.26335937 56.55189453 -154.03648437 55.97439453 -153.80273438 55.37939453 C-152.14261799 52.53348072 -150.0983548 51.13097532 -147.49023438 49.12939453 C-146.77351563 48.39205078 -146.05679688 47.65470703 -145.31835938 46.89501953 C-135.43645246 37.2314973 -123.70174908 29.49352469 -111.49023438 23.12939453 C-110.87889648 22.80132812 -110.26755859 22.47326172 -109.63769531 22.13525391 C-86.42925525 9.69238958 -60.7575579 1.76804274 -34.37634277 0.55545044 C-33.51841173 0.51473297 -32.66048068 0.47401551 -31.77655172 0.43206418 C-21.18685165 -0.02664307 -10.5975841 -0.01075162 0 0 Z " fill="#131B29" transform="translate(531.490234375,271.87060546875)"/>
<path d="M0 0 C3.8830738 0.01987946 7.76610267 0.01015916 11.64920771 0.00441098 C19.21433193 -0.00234096 26.77916288 0.01705815 34.34422731 0.04557426 C43.16239376 0.0776592 51.98051116 0.08183646 60.79872752 0.08476619 C76.5206443 0.09080374 92.24243093 0.11978768 107.96428645 0.16285825 C123.21721879 0.20460768 138.47008996 0.23283692 153.72307551 0.2448895 C154.66606934 0.24563771 155.60906316 0.24638593 156.58063256 0.24715681 C160.37118899 0.25013119 164.16174544 0.2530685 167.95230195 0.2559431 C184.26701604 0.26865391 200.58171659 0.29240332 216.8964155 0.31758136 C219.53758531 0.3215641 222.17875538 0.32528224 224.81992567 0.32893538 C234.04704117 0.34193042 243.27413258 0.35821477 252.50122236 0.38391979 C256.31509043 0.39453173 260.12894482 0.4036298 263.94282496 0.40849042 C268.0662941 0.41384748 272.1896996 0.42699724 276.31314814 0.44108701 C277.53118598 0.44158476 278.74922383 0.44208252 280.00417191 0.44259536 C281.09908198 0.44766991 282.19399205 0.45274445 283.32208121 0.45797276 C284.75100979 0.46146873 284.75100979 0.46146873 286.20880562 0.46503532 C288.3444134 0.59498715 288.3444134 0.59498715 289.3444134 1.59498715 C289.44229118 3.08325318 289.4707312 4.57614721 289.47139704 6.06762815 C289.47421687 7.03374021 289.47703669 7.99985227 289.47994196 8.99524045 C289.47690562 10.5981368 289.47690562 10.5981368 289.47380793 12.23341489 C289.47643641 13.91130597 289.47643641 13.91130597 289.47911799 15.62309384 C289.48353954 19.34160505 289.48059725 23.06006916 289.4772259 26.7785809 C289.4778989 29.35068895 289.47886889 31.92279693 289.48012507 34.49490476 C289.48160249 39.8945646 289.47954087 45.29420657 289.47478449 50.69386411 C289.46934463 56.94169784 289.47110254 63.18949892 289.4766109 69.43733186 C289.4816913 75.43930597 289.48115901 81.44126409 289.47822917 87.4432404 C289.47756009 90.00101404 289.47838764 92.5587885 289.48070872 95.11656117 C289.48323694 98.68678513 289.47939206 102.25694568 289.47380793 105.82716489 C289.47583216 106.89373822 289.47785639 107.96031156 289.47994196 109.05920529 C289.47571223 110.51260312 289.47571223 110.51260312 289.47139704 111.99536252 C289.47102002 112.84026966 289.47064299 113.6851768 289.47025454 114.55568719 C289.3444134 116.59498715 289.3444134 116.59498715 288.3444134 118.59498715 C267.46500058 118.72854399 246.58556999 118.85896777 225.70611727 118.98613858 C216.00057935 119.04531735 206.29504846 119.10535392 196.58953059 119.16774106 C162.18739342 119.38848268 127.78544232 119.60617441 93.38249934 119.62623715 C92.49366321 119.6267558 91.60482708 119.62727445 90.68905652 119.62780881 C72.24083347 119.63650755 53.79262807 119.61130218 35.3444134 119.59498715 C35.3444134 144.34498715 35.3444134 169.09498715 35.3444134 194.59498715 C46.8325384 194.57436215 58.3206634 194.55373715 70.1569134 194.53248715 C118.89203268 194.49115117 167.61147664 195.04588364 216.3444134 195.59498715 C216.3444134 232.55498715 216.3444134 269.51498715 216.3444134 307.59498715 C155.99522074 308.27497806 95.69571235 308.70333778 35.3444134 308.59498715 C35.3444134 350.50498715 35.3444134 392.41498715 35.3444134 435.59498715 C-10.1955866 435.59498715 -55.7355866 435.59498715 -102.6555866 435.59498715 C-99.40248512 432.34188568 -96.53872675 429.60706912 -92.9680866 426.84498715 C-62.99668435 403.08987574 -45.48494586 372.06985178 -37.8430866 334.84498715 C-37.6358698 333.8400018 -37.42865301 332.83501645 -37.21515691 331.799577 C-34.87299239 319.66021333 -34.50551209 307.44822273 -34.51032293 295.11403012 C-34.50696432 293.84688672 -34.5036057 292.57974332 -34.50014532 291.27420163 C-34.49142266 287.8419741 -34.4889722 284.4097716 -34.48832953 280.97753406 C-34.48761218 278.82010992 -34.48546509 276.66269189 -34.48283231 274.50526929 C-34.47361692 266.94142123 -34.46949253 259.37759064 -34.47028387 251.81373715 C-34.47088327 244.82354445 -34.46034851 237.83342925 -34.4445402 230.84325612 C-34.43135478 224.79175228 -34.42610454 218.74027343 -34.42673928 212.68875539 C-34.4269911 209.09671983 -34.42431844 205.50475328 -34.41356122 201.91273236 C-34.35781267 181.90380397 -34.58572607 162.14898622 -39.2805866 142.59498715 C-39.54001043 141.50178159 -39.79943426 140.40857602 -40.06671941 139.28224301 C-42.63279508 128.94632541 -46.15070336 119.23579561 -50.6555866 109.59498715 C-51.02667547 108.80044126 -51.39776433 108.00589536 -51.78009832 107.18727231 C-63.50475579 82.61068196 -80.41788268 62.17768295 -102.2258991 45.9348309 C-103.12779974 45.25674375 -103.12779974 45.25674375 -104.04792058 44.56495786 C-105.22234047 43.68506134 -106.40394697 42.8146562 -107.59333074 41.95509458 C-109.00246408 40.90515629 -110.3368732 39.75646128 -111.6555866 38.59498715 C-111.6555866 37.60498715 -111.6555866 36.61498715 -111.6555866 35.59498715 C-109.5863751 33.83993331 -107.57201338 32.30959777 -105.3430866 30.78248715 C-104.7022614 30.33598813 -104.06143621 29.88948911 -103.40119207 29.42945981 C-98.01733672 25.73250111 -92.4850448 22.54055995 -86.6555866 19.59498715 C-85.44148178 18.95282159 -84.22797826 18.30951835 -83.0149616 17.66529965 C-56.51703724 3.76924139 -29.70368338 -0.19551082 0 0 Z " fill="#121B29" transform="translate(700.6555866003036,500.40501284599304)"/>
<path d="M0 0 C4.01199602 1.84756626 6.75705689 4.49579142 9.8125 7.625 C10.30814453 8.12128906 10.80378906 8.61757813 11.31445312 9.12890625 C13.984674 11.83005633 16.52349937 14.59605719 18.98046875 17.4921875 C24.77605847 24.17799385 31.21479763 30.28034977 37.5 36.5 C51.96798798 50.81709265 51.96798798 50.81709265 57.13867188 56.91601562 C61.83794639 62.17742791 66.98416131 67.04300635 72 72 C84.90040445 84.74905892 84.90040445 84.74905892 90.2109375 90.98828125 C94.25171633 95.53195177 98.67122369 99.7321515 103 104 C113.6580274 114.50801495 113.6580274 114.50801495 117.375 118.875 C122.54996198 124.92477698 128.34172545 130.40810744 134 136 C147.04683122 148.89376784 147.04683122 148.89376784 152.3671875 155.14453125 C155.56046368 158.77325418 159.05297012 162.11463434 162.5 165.5 C167.33117753 170.24475218 171.98125119 175.0436807 176.39697266 180.17871094 C179.42257677 183.61626907 182.7610601 186.72376277 186.05859375 189.8984375 C188 192 188 192 188 194 C169.24979562 194.04677652 150.49960313 194.08201652 131.74935246 194.10362434 C123.04276132 194.1139251 114.3362065 194.12796244 105.62963867 194.15087891 C98.03861718 194.17084959 90.44762199 194.18372516 82.85657495 194.18817699 C78.83934327 194.19077815 74.82218683 194.19686689 70.80497932 194.21146011 C67.01868452 194.2251022 63.23249549 194.22920933 59.44617844 194.22621536 C58.0615411 194.22676257 56.67689999 194.23070039 55.29228401 194.23841095 C38.72121341 194.32611259 25.75765254 190.66416798 13.546875 178.89453125 C1.99361515 165.76421599 -0.48117283 150.96660433 -0.34057617 133.84643555 C-0.3397276 132.37655657 -0.34020951 130.90667634 -0.34190369 129.4367981 C-0.34275611 125.48923208 -0.32525411 121.54194569 -0.30418181 117.59444404 C-0.28528782 113.45318038 -0.28365464 109.31190864 -0.28010559 105.17060852 C-0.27082218 97.3475932 -0.24625918 89.5247053 -0.21605712 81.70174581 C-0.18239701 72.78748446 -0.16599806 63.87321668 -0.15097082 54.95890749 C-0.11970584 36.63919971 -0.0670183 18.31961014 0 0 Z " fill="#0A5EFD" transform="translate(801,275)"/>
<path d="M0 0 C3.88719019 0.017528 7.77435986 0.0114107 11.66157854 0.0083909 C18.37131334 0.0063093 25.08089067 0.01869213 31.79058588 0.04134226 C41.49124908 0.0740675 51.19183736 0.08429007 60.89254978 0.08929422 C76.63722201 0.09801498 92.38181062 0.12454243 108.12643754 0.16250467 C123.40670677 0.19930863 138.68695316 0.22757916 153.96725786 0.24453592 C155.38377896 0.24611226 155.38377896 0.24611226 156.82891665 0.24772045 C161.56716784 0.25294119 166.30541919 0.25799588 171.04367065 0.26296806 C210.25515601 0.30432967 249.46654806 0.37468948 288.67795122 0.46426249 C288.67795122 0.79426249 288.67795122 1.12426249 288.67795122 1.46426249 C182.41795122 1.79426249 76.15795122 2.12426249 -33.32204878 2.46426249 C-33.32204878 3.12426249 -33.32204878 3.78426249 -33.32204878 4.46426249 C-36.29204878 3.96926249 -36.29204878 3.96926249 -39.32204878 3.46426249 C-39.32204878 4.12426249 -39.32204878 4.78426249 -39.32204878 5.46426249 C-43.94704878 7.58926249 -43.94704878 7.58926249 -47.32204878 6.46426249 C-48.31204878 5.80426249 -49.30204878 5.14426249 -50.32204878 4.46426249 C-33.55736668 0.33027956 -17.16498034 -0.09740069 0 0 Z " fill="#282B38" transform="translate(700.3220487833023,500.53573751449585)"/>
<path d="M0 0 C0 1.65 0 3.3 0 5 C-0.66 5 -1.32 5 -2 5 C-2 7.31 -2 9.62 -2 12 C-2.33 12 -2.66 12 -3 12 C-3 8.7 -3 5.4 -3 2 C-104.31 2 -205.62 2 -310 2 C-310 1.67 -310 1.34 -310 1 C-270.652248 0.872587 -231.30449594 0.74519093 -191.95674381 0.61781773 C-187.31645876 0.60279658 -182.67617372 0.58777529 -178.03588867 0.57275391 C-177.11205102 0.56976329 -176.18821336 0.56677268 -175.23638063 0.56369144 C-160.25734763 0.5152015 -145.27831467 0.46670014 -130.29928172 0.41819459 C-114.9412784 0.3684621 -99.58327504 0.31874181 -84.22527164 0.26903296 C-74.74065614 0.23833396 -65.25604067 0.20762532 -55.77142524 0.17690456 C-49.27662883 0.15586876 -42.78183237 0.13484475 -36.28703589 0.11383021 C-32.53409316 0.10168685 -28.78115045 0.0895381 -25.02820778 0.07737541 C-20.9691684 0.06422085 -16.91012894 0.05109103 -12.85108948 0.03796387 C-11.0520042 0.03212744 -11.0520042 0.03212744 -9.21657377 0.02617311 C-8.13821349 0.02268972 -7.05985321 0.01920632 -5.94881535 0.01561737 C-5.01052641 0.01257961 -4.07223747 0.00954185 -3.10551554 0.00641203 C-1 0 -1 0 0 0 Z " fill="#182230" transform="translate(990,502)"/>
<path d="M0 0 C0.66 0.33 1.32 0.66 2 1 C1.34 2.32 0.68 3.64 0 5 C25.08 5 50.16 5 76 5 C76 5.33 76 5.66 76 6 C48.94 6 21.88 6 -6 6 C-4 4 -2 2 0 0 Z " fill="#131A2C" transform="translate(604,930)"/>
<path d="M0 0 C0 0.33 0 0.66 0 1 C-7.92 1.33 -15.84 1.66 -24 2 C-24 2.66 -24 3.32 -24 4 C-26.97 3.505 -26.97 3.505 -30 3 C-30 3.66 -30 4.32 -30 5 C-34.625 7.125 -34.625 7.125 -38 6 C-38.99 5.34 -39.98 4.68 -41 4 C-27.12923958 0.88047155 -14.2135032 -0.54960915 0 0 Z " fill="#4B515D" transform="translate(691,501)"/>
<path d="M0 0 C0 1.65 0 3.3 0 5 C-0.66 5 -1.32 5 -2 5 C-2 7.31 -2 9.62 -2 12 C-2.33 12 -2.66 12 -3 12 C-3 8.7 -3 5.4 -3 2 C-12.9 2 -22.8 2 -33 2 C-33 1.67 -33 1.34 -33 1 C-28.46102507 0.8573866 -23.92204387 0.71497518 -19.38305664 0.57275391 C-17.83780749 0.52430738 -16.29256008 0.4758049 -14.74731445 0.42724609 C-12.53076627 0.35760142 -10.31421193 0.28815563 -8.09765625 0.21875 C-7.4028566 0.19687622 -6.70805695 0.17500244 -5.99220276 0.15246582 C-1.11387171 0 -1.11387171 0 0 0 Z " fill="#182231" transform="translate(990,502)"/>
<path d="M0 0 C3.33855933 5.007839 2.61368518 11.41182032 1.6171875 17.23828125 C0.80465344 20.24981622 -0.25847066 22.38770599 -2 25 C-1.34 16.75 -0.68 8.5 0 0 Z " fill="#323943" transform="translate(666,809)"/>
<path d="M0 0 C0.66 0.33 1.32 0.66 2 1 C1.34 2.32 0.68 3.64 0 5 C7.26 5 14.52 5 22 5 C22 5.33 22 5.66 22 6 C12.76 6 3.52 6 -6 6 C-4 4 -2 2 0 0 Z " fill="#242939" transform="translate(604,930)"/>
<path d="M0 0 C0.99 0.33 1.98 0.66 3 1 C0.36 4.3 -2.28 7.6 -5 11 C-6.32 10.67 -7.64 10.34 -9 10 C-8.27683594 9.29423828 -8.27683594 9.29423828 -7.5390625 8.57421875 C-6.90742187 7.95160156 -6.27578125 7.32898438 -5.625 6.6875 C-4.68527344 5.76517578 -4.68527344 5.76517578 -3.7265625 4.82421875 C-1.81913393 2.91187472 -1.81913393 2.91187472 0 0 Z " fill="#2C3543" transform="translate(630,906)"/>
<path d="M0 0 C1.79275866 3.11910856 2.34290718 5.67682428 2.625 9.25 C2.69976563 10.14203125 2.77453125 11.0340625 2.8515625 11.953125 C2.92503906 12.96632813 2.92503906 12.96632813 3 14 C2.01 14.495 2.01 14.495 1 15 C-0.44207941 12.11584117 -0.09394887 9.58278472 -0.0625 6.375 C-0.05347656 5.18648437 -0.04445313 3.99796875 -0.03515625 2.7734375 C-0.02355469 1.85820313 -0.01195312 0.94296875 0 0 Z " fill="#212734" transform="translate(987,589)"/>
<path d="M0 0 C5.875 4.625 5.875 4.625 7 8 C6.01 8 5.02 8 4 8 C0 3.77142857 0 3.77142857 0 0 Z " fill="#4386FD" transform="translate(880,355)"/>
<path d="M0 0 C0.66 0.33 1.32 0.66 2 1 C1.67 1.66 1.34 2.32 1 3 C-0.65 3 -2.3 3 -4 3 C-4 3.66 -4 4.32 -4 5 C-5.98 5.33 -7.96 5.66 -10 6 C-7.31100548 2.67830089 -3.94687492 1.43522725 0 0 Z " fill="#474D58" transform="translate(434,288)"/>
<path d="M0 0 C-1.3418344 4.02550319 -3.4227573 4.88285636 -7 7 C-7.66 7 -8.32 7 -9 7 C-7.68534669 3.05604006 -4.38536841 0 0 0 Z " fill="#454953" transform="translate(583,905)"/>
<path d="M0 0 C4 2 4 2 5 4 C4.01 4.495 4.01 4.495 3 5 C2.34 6.32 1.68 7.64 1 9 C0.67 6.03 0.34 3.06 0 0 Z " fill="#3283FD" transform="translate(802,276)"/>
<path d="M0 0 C0 0.66 0 1.32 0 2 C-2.64 2.66 -5.28 3.32 -8 4 C-8.33 3.01 -8.66 2.02 -9 1 C-6.04335481 -0.4783226 -3.25770263 -0.06032783 0 0 Z " fill="#3E4551" transform="translate(548,924)"/>
<path d="M0 0 C0 1.65 0 3.3 0 5 C-0.66 5 -1.32 5 -2 5 C-2 7.31 -2 9.62 -2 12 C-2.33 12 -2.66 12 -3 12 C-3 8.37 -3 4.74 -3 1 C-1 0 -1 0 0 0 Z " fill="#4A505B" transform="translate(990,502)"/>
<path d="M0 0 C1.485 0.99 1.485 0.99 3 2 C3 2.66 3 3.32 3 4 C4.32 4.66 5.64 5.32 7 6 C6.67 6.99 6.34 7.98 6 9 C4.99406757 7.8803014 3.9954151 6.7540588 3 5.625 C2.443125 4.99851562 1.88625 4.37203125 1.3125 3.7265625 C0 2 0 2 0 0 Z " fill="#414652" transform="translate(376,583)"/>
<path d="M0 0 C0.66 0.99 1.32 1.98 2 3 C0.71034824 4.37562854 -0.62689293 5.70766393 -2 7 C-2.66 7 -3.32 7 -4 7 C-2.79618552 4.50638429 -1.54571278 2.31856917 0 0 Z " fill="#434854" transform="translate(360,347)"/>
<path d="M0 0 C0.33 1.32 0.66 2.64 1 4 C-0.32 4.99 -1.64 5.98 -3 7 C-3 3 -3 3 -1.5 1.25 C-1.005 0.8375 -0.51 0.425 0 0 Z " fill="#3B414D" transform="translate(369,336)"/>
</svg>
